<svg width="24" height="25" viewBox="0 0 24 25" fill="none" xmlns="http://www.w3.org/2000/svg">
<path d="M1.73242 4.23501H5.75242L8.14117 14.6938H18.6337L21.0637 6.63126L6.25117 6.42126" stroke="black" stroke-width="1.125"/>
<path d="M19.3988 17.1313H8.12629C7.96378 17.1348 7.80223 17.1055 7.65138 17.0449C7.50053 16.9844 7.3635 16.8939 7.24857 16.779C7.13363 16.664 7.04316 16.527 6.98262 16.3762C6.92207 16.2253 6.8927 16.0638 6.89629 15.9013C6.89629 14.6938 8.14129 14.6938 8.14129 14.6938" stroke="black" stroke-width="1.125"/>
<path d="M9.35598 21.1775C10.0871 21.1775 10.6797 20.5848 10.6797 19.8537C10.6797 19.1227 10.0871 18.53 9.35598 18.53C8.62489 18.53 8.03223 19.1227 8.03223 19.8537C8.03223 20.5848 8.62489 21.1775 9.35598 21.1775Z" stroke="black" stroke-width="1.125"/>
<path d="M17.2652 21.1775C17.9962 21.1775 18.5889 20.5848 18.5889 19.8537C18.5889 19.1227 17.9962 18.53 17.2652 18.53C16.5341 18.53 15.9414 19.1227 15.9414 19.8537C15.9414 20.5848 16.5341 21.1775 17.2652 21.1775Z" stroke="black" stroke-width="1.125"/>
</svg>
